C:\GBW_MyPrograms\KinderuniversiteitApp\Resultaten\Ellis_v10102025\Reus\Reus_v2.mot
version=1
nRows=6
nColumns=29
inDegrees=yes
endheader
                time	         pelvis_tilt	           pelvis_tx	           pelvis_ty	       hip_flexion_l	       hip_flexion_r	        knee_angle_l	        knee_angle_r	       ankle_angle_l	       ankle_angle_r	    lumbar_extension	hamstrings_r/activation	bifemsh_r/activation	glut_max_r/activation	iliopsoas_r/activation	rect_fem_r/activation	  vasti_r/activation	gastroc_r/activation	 soleus_r/activation	tib_ant_r/activation	hamstrings_l/activation	bifemsh_l/activation	glut_max_l/activation	iliopsoas_l/activation	rect_fem_l/activation	  vasti_l/activation	gastroc_l/activation	 soleus_l/activation	tib_ant_l/activation	
          0.00000000	         -7.61695505	          0.00000000	          0.78386781	         19.60527704	         20.60361088	        -27.93423389	        -26.51227536	          5.51356560	          5.31574493	         -7.67321460	          0.50075863	          0.48795026	          0.52968091	          0.44889152	          0.48506042	          0.51587136	          0.49113200	          0.50719690	          0.44023482	          0.46380587	          0.50406865	          0.46653141	          0.50213077	          0.49094796	          0.45488954	          0.48901733	          0.46667094	          0.48077762	
          0.00200000	         -7.63027445	          0.56860528	          0.78415943	         19.99928765	         20.05912230	        -27.66594799	        -27.09150647	          5.50862538	          5.41285578	         -7.66699618	          0.49977646	          0.48903051	          0.52801452	          0.45053560	          0.48561228	          0.51304762	          0.49348718	          0.50941544	          0.43751711	          0.45657967	          0.50006848	          0.47073796	          0.49448369	          0.49566432	          0.47237493	          0.48384666	          0.47540948	          0.47703896	
          0.00400000	         -7.65171415	          0.71988995	          0.78285604	         20.43034581	         19.48253697	        -27.20820465	        -27.73794455	          5.58939163	          5.46762717	         -7.66063903	          0.50047249	          0.48861481	          0.53077311	          0.44625463	          0.48472505	          0.51519764	          0.48952179	          0.50414487	          0.43952497	          0.44941021	          0.49216993	          0.48429921	          0.48412124	          0.50005591	          0.48889353	          0.47705143	          0.48559957	          0.47008654	
          0.00600000	         -7.66108149	          0.80677790	          0.78331198	         20.94223374	         19.38069271	        -26.65824060	        -27.69867929	          5.59054831	          5.51030129	         -7.65468244	          0.49569910	          0.48470075	          0.53577769	          0.44071426	          0.48700279	          0.52315607	          0.48189286	          0.49532085	          0.44605106	          0.44726759	          0.48639563	          0.49626004	          0.47513499	          0.50154922	          0.50295521	          0.47642395	          0.49596322	          0.46235587	
          0.00800000	         -7.67663253	          0.86240635	          0.78456326	         21.39447872	         19.12789368	        -26.19270001	        -28.82239746	          5.56776038	          5.55908103	         -7.64937379	          0.49019617	          0.48225748	          0.53802895	          0.43976257	          0.48872289	          0.52707043	          0.47538677	          0.48565690	          0.45283847	          0.44465526	          0.48244919	          0.50544573	          0.46780595	          0.50222687	          0.51464213	          0.47772477	          0.50491465	          0.45560822	
          0.01000000	         -7.65268551	          0.89946044	          0.78538665	         21.21161573	         20.36482051	        -26.76219296	        -26.98805755	          5.65028032	          5.57721958	         -7.64611738	          0.48042139	          0.48309836	          0.52913846	          0.45248092	          0.49334303	          0.51917447	          0.47022195	          0.47531900	          0.46055549	          0.43628445	          0.48022323	          0.50242103	          0.46967463	          0.50598946	          0.52401663	          0.47980413	          0.51183165	          0.45050432	
